<?xml version="1.0" standalone="no"?><!DOCTYPE svg PUBLIC "-//W3C//DTD SVG 1.1//EN" "http://www.w3.org/Graphics/SVG/1.1/DTD/svg11.dtd"><svg t="1622875509345" class="icon" viewBox="0 0 1024 1024" version="1.1" xmlns="http://www.w3.org/2000/svg" p-id="3894" xmlns:xlink="http://www.w3.org/1999/xlink" width="18" height="18"><defs><style type="text/css"></style></defs><path d="M581.44 941.44a32 32 0 0 1-17.28-4.8l-171.2-109.12a32 32 0 0 1-14.72-27.2v-299.2L106.24 164.16A32 32 0 0 1 131.2 112h717.12a32 32 0 0 1 28.8 18.24 32 32 0 0 1-3.84 33.92l-259.84 320v425.28a32 32 0 0 1-16.64 28.16 32 32 0 0 1-15.36 3.84z m-139.2-160l107.2 68.48V472a32 32 0 0 1 7.04-20.16l224-275.84H198.08l236.8 293.76a32 32 0 0 1 7.36 19.84z" p-id="3895"></path></svg>